<svg width="50" height="50" viewBox="0 0 50 50" fill="none" xmlns="http://www.w3.org/2000/svg">
<circle cx="25" cy="25" r="25" fill="#4B13AA" fill-opacity="0.1"/>
<path d="M18.2 33.976V31.456L25.592 24.868C26.168 24.356 26.568 23.872 26.792 23.416C27.016 22.96 27.128 22.52 27.128 22.096C27.128 21.52 27.004 21.008 26.756 20.56C26.508 20.104 26.164 19.744 25.724 19.48C25.292 19.216 24.792 19.084 24.224 19.084C23.624 19.084 23.092 19.224 22.628 19.504C22.172 19.776 21.816 20.14 21.56 20.596C21.304 21.052 21.184 21.544 21.2 22.072H18.224C18.224 20.92 18.48 19.916 18.992 19.06C19.512 18.204 20.224 17.54 21.128 17.068C22.04 16.596 23.092 16.36 24.284 16.36C25.388 16.36 26.38 16.608 27.26 17.104C28.14 17.592 28.832 18.272 29.336 19.144C29.84 20.008 30.092 21.004 30.092 22.132C30.092 22.956 29.98 23.648 29.756 24.208C29.532 24.768 29.196 25.284 28.748 25.756C28.308 26.228 27.76 26.752 27.104 27.328L21.86 31.972L21.596 31.252H30.092V33.976H18.2Z" fill="black"/>
</svg>
