<svg width="166" height="32" viewBox="0 0 166 32" fill="none" xmlns="http://www.w3.org/2000/svg">
<path d="M13.3984 22.8345L21.6252 27.6719L19.442 18.5548L26.7103 12.4206L17.139 11.6295L13.3984 3.03125L9.65772 11.6295L0.0864258 12.4206L7.35475 18.5548L5.17159 27.6719L13.3984 22.8345Z" fill="white"/>
<path d="M47.3471 22.8345L55.5739 27.6719L53.3907 18.5548L60.6591 12.4206L51.0878 11.6295L47.3471 3.03125L43.6064 11.6295L34.0352 12.4206L41.3035 18.5548L39.1203 27.6719L47.3471 22.8345Z" fill="white"/>
<path d="M81.2958 22.8345L89.5226 27.6719L87.3395 18.5548L94.6078 12.4206L85.0365 11.6295L81.2958 3.03125L77.5552 11.6295L67.9839 12.4206L75.2522 18.5548L73.0691 27.6719L81.2958 22.8345Z" fill="white"/>
<path d="M115.244 22.8345L123.471 27.6719L121.288 18.5548L128.556 12.4206L118.985 11.6295L115.244 3.03125L111.504 11.6295L101.932 12.4206L109.201 18.5548L107.018 27.6719L115.244 22.8345Z" fill="white"/>
<path d="M149.129 23.027L157.323 28.0003L155.148 18.627L162.387 12.3203L152.854 11.507L149.129 2.66699L145.403 11.507L135.87 12.3203L143.109 18.627L140.935 28.0003L149.129 23.027Z" fill="white"/>
</svg>
