<svg width="50" height="50" viewBox="0 0 50 50" fill="none" xmlns="http://www.w3.org/2000/svg">
<circle cx="25" cy="25" r="25" fill="#4B13AA" fill-opacity="0.1"/>
<path d="M25 14L16 18V24C16 29.55 19.84 34.74 25 36C30.16 34.74 34 29.55 34 24V18L25 14ZM25 18C25.7956 18 26.5587 18.3161 27.1213 18.8787C27.6839 19.4413 28 20.2044 28 21C28 21.7956 27.6839 22.5587 27.1213 23.1213C26.5587 23.6839 25.7956 24 25 24C24.2044 24 23.4413 23.6839 22.8787 23.1213C22.3161 22.5587 22 21.7956 22 21C22 20.2044 22.3161 19.4413 22.8787 18.8787C23.4413 18.3161 24.2044 18 25 18ZM30.13 30C28.9184 31.8547 27.1078 33.2382 25 33.92C22.8922 33.2382 21.0816 31.8547 19.87 30C19.53 29.5 19.24 29 19 28.47C19 26.82 21.71 25.47 25 25.47C28.29 25.47 31 26.79 31 28.47C30.76 29 30.47 29.5 30.13 30Z" fill="#4B13AA"/>
</svg>
